# xmcd CD database file
#
# Track frame offsets:
#	150
#	24258
#	40551
#	53919
#	73348
#	92917
#	97812
#	124286
#	134557
#	154336
#	176819
#	201380
#	218048
#	232393
#
# Disc length: 3392 seconds
#
# Revision: 0
# Processed by: cddbd v1.5.2PL0 Copyright (c) Steve Scherf et al.
# Submitted via: CDex 1.51
#
DISCID=d20d3e0e
DTITLE=The Rosano Bros. Virtual Quartet - Live At Dante's House
DYEAR=2008
DGENRE=Jazz
TTITLE0=Whatever Lola Wants
TTITLE1=Dream a Little Dream
TTITLE2=Doyne/Freylekhs
TTITLE3=Memories of You
TTITLE4=Super Mario Bros. Theme
TTITLE5=???????
TTITLE6=I Remember the Time
TTITLE7=I Remember the Time (Reprise)
TTITLE8=Hi-hat Solo
TTITLE9=Mood Indigo
TTITLE10=Billie Jean
TTITLE11=Moscow Nights
TTITLE12=Brother Can You Spare a Dime
TTITLE13=The Melodica Gypsy Song
EXTD=YEAR: 2008
EXTT0=
EXTT1=
EXTT2=
EXTT3=
EXTT4=
EXTT5=
EXTT6=
EXTT7=
EXTT8=
EXTT9=
EXTT10=
EXTT11=
EXTT12=
EXTT13=
PLAYORDER=
